<svg xmlns="http://www.w3.org/2000/svg" width="379.248" height="384.064" viewBox="0 0 379.248 384.064">
  <g id="arm_muscle_male_icon_143251" transform="translate(-26.71 -23.749)">
    <path id="パス_1" data-name="パス 1" d="M105.6,92.37a4.653,4.653,0,0,0,3.157-1.223l1.727-1.554A4.678,4.678,0,0,0,104.3,82.6l-1.818,1.653a4.678,4.678,0,0,0,3.157,8.132Z" transform="translate(-12.798 -9.954)" fill="#fff" stroke="#fff" stroke-width="1"/>
    <path id="パス_2" data-name="パス 2" d="M252.766,296.591a4.644,4.644,0,0,0,1.893-.405,61.159,61.159,0,0,1,48.877-.711,57.328,57.328,0,0,1,8.752,6.141,4.681,4.681,0,1,0,6.025-7.166,65.423,65.423,0,0,0-10.628-7.38l-.2-.074a2.1,2.1,0,0,0-.19-.1,70.356,70.356,0,0,0-56.422.736,4.678,4.678,0,0,0,1.893,8.959Z" transform="translate(-38.331 -44.619)" fill="#fff" stroke="#fff" stroke-width="1"/>
    <path id="パス_3" data-name="パス 3" d="M337.385,282.425a133.35,133.35,0,0,0,15.463-10.066c15.339-11.744,43.141-19.009,71.075-1a111.983,111.983,0,0,1,8.917,7.8,4.675,4.675,0,1,0,6.612-6.612,119.64,119.64,0,0,0-10-8.727c-.049-.041-.107-.058-.157-.1a1.767,1.767,0,0,0-.149-.116c-32.067-20.794-64.216-12.281-81.993,1.322a124.252,124.252,0,0,1-14.372,9.356,4.686,4.686,0,0,0,2.306,8.76A4.614,4.614,0,0,0,337.385,282.425Z" transform="translate(-52.618 -39.371)" fill="#fff" stroke="#fff" stroke-width="1"/>
    <path id="パス_4" data-name="パス 4" d="M218.774,415.971A190.912,190.912,0,0,0,389.3,311.754a4.681,4.681,0,1,0-8.331-4.273A183.069,183.069,0,0,1,346.545,354.4a103.621,103.621,0,0,0-34.571-36.653c-17.818-11.273-20.314-26.959-20.422-27.662a4.7,4.7,0,0,0-9.306,1.3c.116.826,3,20.587,24.686,34.306a94.6,94.6,0,0,1,32.5,35.306,180.832,180.832,0,0,1-31.364,22.314c-1.339-12.207-6.975-27.959-26.009-34.9a46.364,46.364,0,0,0-17.025-2.645c-17.6.438-77.34.827-107.3-12.066a4.555,4.555,0,0,0-1.545-.372c-.215,0-21.62-1.521-37.009-13.058a13.372,13.372,0,0,1-4.4-15.529c4.959-12.752,11.57-31.852,14.413-50.463v-.248c0-.339,3.636-34.157,27.579-88.034a.169.169,0,0,1,.041-.107L171.8,129.777a24.307,24.307,0,0,1,11.232-12.24l62.811-32.612a13.058,13.058,0,0,1,16.81,4.24l17.471,25.661a11.108,11.108,0,0,1-3.5,15.818l-27.215,16.149c-1.7,1-4.132,1.851-5.934.174l-8.521-7.827a4.679,4.679,0,0,0-6.331,6.893l8.513,7.818c4.579,4.223,10.942,4.6,17.042.992l9.587-5.686,1.331,1.827a15.876,15.876,0,0,0,21.562,3.9l7.289-4.785a20.183,20.183,0,0,0,8.769-13.347,4.678,4.678,0,1,0-9.2-1.57,10.8,10.8,0,0,1-4.694,7.132l-7.24,4.752a6.554,6.554,0,0,1-8.876-1.6l-.826-1.107,9.546-5.661a20.455,20.455,0,0,0,6.455-29.133l-17.471-25.62a22.422,22.422,0,0,0-28.86-7.281l-62.811,32.612a33.72,33.72,0,0,0-15.562,16.959L148.228,162.29c-24.075,54.191-28.009,87.96-28.3,90.72-2.893,18.661-9.918,38.3-13.868,48.356a22.769,22.769,0,0,0,7.5,26.447c15.959,11.967,36.736,14.438,41.182,14.876,31.909,13.339,92.563,12.967,110.514,12.529a36.622,36.622,0,0,1,13.587,2.075c15.7,5.736,19.794,19.405,20.182,30.835a182.233,182.233,0,0,1-80.257,18.488c-100.489,0-182.209-81.72-182.209-182.176A181.25,181.25,0,0,1,67.533,122.785a4.68,4.68,0,0,0-7.76-5.232A190.54,190.54,0,0,0,27.21,224.439C27.21,330.052,113.128,415.971,218.774,415.971Z" transform="translate(0 -8.658)" fill="#fff" stroke="#fff" stroke-width="1"/>
    <path id="パス_5" data-name="パス 5" d="M152.026,55.779a182.4,182.4,0,0,1,87.208-22.174c80.877,0,152.895,54.24,175.151,131.9a52.718,52.718,0,0,1-5.521,42.348,39.538,39.538,0,0,1-5.3,6.884,4.681,4.681,0,0,0,6.678,6.562,49.875,49.875,0,0,0,6.57-8.5,62.117,62.117,0,0,0,6.57-49.868,192.871,192.871,0,0,0-67.91-99.365A189.813,189.813,0,0,0,239.234,24.25a191.78,191.78,0,0,0-91.7,23.314,4.68,4.68,0,0,0,4.488,8.215Z" transform="translate(-20.459 0)" fill="#fff" stroke="#fff" stroke-width="1"/>
    <path id="パス_6" data-name="パス 6" d="M254.026,171.224a4.7,4.7,0,1,0-2.579-9.033c-5.314,1.521-9.438.719-12.612-2.479a4.678,4.678,0,0,0-7.777,1.917c-.421,1.364-10.323,33.761-6.322,64.613l.744,5.719c2.7,20.6,4.182,31.951,1.967,41.455a19.281,19.281,0,0,1-8.827,12.323l-.091.05,2.347,4.05,2.479,3.992A28.677,28.677,0,0,0,236.58,275.54c2.6-11.157,1.042-23.141-1.8-44.794l-.744-5.7c-2.744-21.166,1.727-43.8,4.322-54.455C242.886,172.671,248.224,172.886,254.026,171.224Z" transform="translate(-33.202 -23.271)" fill="#fff" stroke="#fff" stroke-width="1"/>
  </g>
</svg>
